<?xml version="1.0" encoding="UTF-8" standalone="no"?>
<svg
   xmlns:dc="http://purl.org/dc/elements/1.1/"
   xmlns:cc="http://creativecommons.org/ns#"
   xmlns:rdf="http://www.w3.org/1999/02/22-rdf-syntax-ns#"
   xmlns:svg="http://www.w3.org/2000/svg"
   xmlns="http://www.w3.org/2000/svg"
   xmlns:sodipodi="http://sodipodi.sourceforge.net/DTD/sodipodi-0.dtd"
   xmlns:inkscape="http://www.inkscape.org/namespaces/inkscape"
   width="200"
   height="218.18182"
   version="1.1"
   id="svg4"
   sodipodi:docname="logo.svg"
   style="clip-rule:evenodd;fill-rule:evenodd"
   inkscape:version="0.92.3 (2405546, 2018-03-11)">
  <metadata
     id="metadata10">
    <rdf:RDF>
      <cc:Work
         rdf:about="">
        <dc:format>image/svg+xml</dc:format>
        <dc:type
           rdf:resource="http://purl.org/dc/dcmitype/StillImage" />
        <dc:title></dc:title>
      </cc:Work>
    </rdf:RDF>
  </metadata>
  <defs
     id="defs8" />
  <sodipodi:namedview
     pagecolor="#ffffff"
     bordercolor="#666666"
     borderopacity="1"
     objecttolerance="10"
     gridtolerance="10"
     guidetolerance="10"
     inkscape:pageopacity="0"
     inkscape:pageshadow="2"
     inkscape:window-width="2640"
     inkscape:window-height="1717"
     id="namedview6"
     showgrid="false"
     fit-margin-top="0"
     fit-margin-left="0"
     fit-margin-right="0"
     fit-margin-bottom="0"
     inkscape:zoom="2.4583333"
     inkscape:cx="116.4506"
     inkscape:cy="61.577947"
     inkscape:window-x="273"
     inkscape:window-y="236"
     inkscape:window-maximized="0"
     inkscape:current-layer="svg4" />
  <path
     d="m 102.7,50.47273 -0.0455,-0.0455 c 0,0 15.48181,-15.94545 21.70909,-20.53636 10.73636,-7.91818 24.93636,-3.08182 24.93636,-3.08182 0,0 0.19091,13.31818 -8.50909,18.72728 -8.3,5.16363 -16.25455,3.02727 -17.10909,2.7909 3.22727,-4.54545 7.75454,-10.5909 13.82727,-13.61818 -4.48182,-0.25454 -9.90909,2.23637 -14.15454,6.19091 -3.45455,3.20909 -11.45455,11.42727 -14.27273,14.32727 v 28.18182 c 9.70909,-7.81818 27.59091,-22.17272 32.75454,-26.15454 14.25455,-11.01818 33.55455,-4.74546 33.55455,-4.74546 0,0 0.25454,17.84546 -11.4,25.09091 -11.11818,6.90909 -25.02727,2.70909 -26.16364,2.39091 5.5,-6.07273 14.20909,-11.60909 22.33637,-15.65454 -8.16364,-1.1091 -14.67273,1.42727 -24.99091,9.63636 -7.17273,5.71818 -22.64546,18.3 -26.09091,21.099999 V 124.17269 C 120.25455,115.72728 143.2,98.618184 153.62727,92.79091 179.53636,78.30909 200,90.20909 200,90.20909 c 0,0 -2.39091,23.36364 -18.73636,31.06364 -15.58182,7.34545 -34.88182,-0.69091 -36.32728,-1.27273 8.11819,-7.10909 19.97273,-13.33636 32.59091,-16.50909 -11.96363,-1.9 -23.87272,-1.77273 -40.13636,11.02727 -8.63636,6.79091 -24.22727,18.15455 -28.30909,21.11818 l 0.009,82.54546 H 90.909091 L 90.9,135.63636 c -4.090909,-2.98181 -19.654545,-14.32727 -28.290909,-21.11818 -16.263636,-12.8 -28.172727,-12.92727 -40.136364,-11.02727 12.618182,3.17273 24.472728,9.4 32.590909,16.50909 -1.445454,0.58182 -20.745454,8.61818 -36.327272,1.27273 C 2.3909091,113.57273 0,90.20909 0,90.20909 c 0,0 20.463636,-11.9 46.372727,2.58182 C 56.790909,98.618184 79.736364,115.70909 90.9,124.17273 V 95.100002 C 87.536364,92.36364 71.981818,79.70909 64.772727,73.97273 54.454545,65.76364 47.945455,63.22727 39.781818,64.33637 47.918182,68.38182 56.627273,73.91818 62.118182,79.99091 60.981818,80.30909 47.072727,84.50909 35.963636,77.6 c -11.654545,-7.24545 -11.4,-25.09091 -11.4,-25.09091 0,0 19.290909,-6.27272 33.554546,4.74546 C 63.281818,61.24546 81.2,75.62727 90.9,83.43637 V 55.20909 C 88.072727,52.29091 80.090909,44.1 76.645455,40.9 72.4,36.94546 66.972727,34.45455 62.490909,34.70909 c 6.072727,3.02728 10.6,9.07273 13.827273,13.61818 C 75.463636,48.56364 67.509091,50.7 59.209091,45.53637 50.509091,40.12727 50.7,26.80909 50.7,26.80909 c 0,0 14.2,-4.83636 24.936364,3.08182 6.227272,4.59091 21.709091,20.53636 21.709091,20.53636 l -0.05455,0.0636 2.700005,2.50909 z M 129.01818,135.8 c 3.53637,-1.25454 18.38182,-5.78182 32.57273,1.09091 16.25454,7.87273 18.51818,31.46364 18.51818,31.46364 0,0 -19.8,12.90909 -36.16364,4.99091 -15.60909,-7.55455 -20.88181,-23.97273 -21.33636,-25.46364 10.7,1.84546 21.48182,5.61818 31.76364,11.86364 -7.7,-9.65455 -16.20909,-17.5091 -25.35455,-23.94546 z m -58.036362,0 C 67.445455,134.54546 52.6,130.01818 38.409091,136.89091 c -16.254546,7.87273 -18.518182,31.46364 -18.518182,31.46364 0,0 19.8,12.90909 36.163636,4.99091 15.609091,-7.55455 20.881819,-23.97273 21.336364,-25.46364 -10.7,1.84546 -21.481818,5.61818 -31.763636,11.86364 7.7,-9.65455 16.209091,-17.50909 25.354545,-23.94546 z M 104.29091,36.04546 c 1.59091,-1.59091 7.87273,-8.44546 7.82727,-17.9 C 112.07278,7.32727 99.9,0 99.9,0 c 0,0 -12.109091,7.37273 -12.054545,18.26364 0.05455,10.39091 7.563636,17.49091 8.254545,18.11818 1.763636,-6.26364 2.509091,-13.06364 1.8,-20.24545 3.22727,6.67272 5.27273,13.3 6.39091,19.90909 z"
     id="path2"
     inkscape:connector-curvature="0"
     style="stroke-width:9.090909" />
</svg>
